<svg xmlns="http://www.w3.org/2000/svg" width="24" height="24" fill="none" viewBox="0 0 24 24">
  <g clip-path="url(#a)">
    <path fill="#4E4E4E" fill-rule="evenodd" d="M6.607 3.25c-.842.843-.842 2.2-.842 4.913v7.674c0 2.713 0 4.07.843 4.913.842.843 2.199.843 4.912.843h.96c2.713 0 4.07 0 4.912-.843.843-.843.843-2.2.843-4.913V8.163c0-2.713 0-4.07-.843-4.913s-2.2-.843-4.912-.843h-.96c-2.713 0-4.07 0-4.913.843m7.79 2.786a.75.75 0 0 0 0-1.5H9.602a.75.75 0 0 0 0 1.5zM12 18.716a1.439 1.439 0 1 0 0-2.879 1.439 1.439 0 0 0 0 2.878" clip-rule="evenodd"/>
  </g>
  <defs>
    <clipPath id="a">
      <path fill="#fff" d="M0 0h24v24H0z"/>
    </clipPath>
  </defs>
</svg>
